<svg width="67" height="27" viewBox="0 0 96 34" xmlns="http://www.w3.org/2000/svg">
    <g class="logo__group-3dq" fill-rule="evenodd">
        <path fill="#0af" d="M6.408 0L4.805 4.404h22.214L28.622 0H6.408zM4.003 6.605L2.4 11.008h22.214l1.603-4.403H4.003zm-2.4 6.605L0 17.613h22.214l1.602-4.403H1.603z"></path>
        <path fill="#0a2896" d="M76.649 7.583h8.455c1.737 0 2.926.091 3.977.365 3.062.823 5.073 2.926 5.073 6.262 0 1.782-.64 3.291-1.691 4.296-.457.457-1.097 1.006-2.057 1.417v.091c1.006.366 1.965 1.006 2.468 1.417 1.554 1.28 2.24 2.971 2.24 5.165 0 3.512-1.818 6.074-4.82 6.967l-.253.071c-.96.275-1.966.366-3.84.366h-9.552V7.583zm-1.645 0l-1.509 4.433h-6.764V34h-5.302V12.016h-7.632V7.583h21.207zm-38.355 0l3.225 11.472.686 2.526c.53 1.965.912 3.476 1.36 5.536l.239-1.132c.444-2.039.847-3.469 1.745-6.744l3.225-11.658h5.581L44.276 34H39.13L30.82 7.583h5.829zm48.775 15.128h-3.473v6.947h3.656l.218-.001c1.012-.014 1.934-.136 2.616-.776.731-.685 1.051-1.554 1.051-2.696 0-.869-.228-1.692-.685-2.286-.777-.959-1.737-1.188-3.383-1.188zm-.49-10.785l-3.029-.001v6.216h3.21c.758-.001 1.174-.013 1.589-.138 1.234-.365 2.011-1.462 2.011-2.97 0-1.783-.822-2.56-2.011-2.925-.461-.127-.921-.175-1.77-.182z"></path>
    </g>
</svg>